<?xml version="1.0" encoding="UTF-8" standalone="no"?>
<!DOCTYPE svg PUBLIC "-//W3C//DTD SVG 1.1//EN" "http://www.w3.org/Graphics/SVG/1.1/DTD/svg11.dtd">
<svg t="1690970952654" class="icon" viewBox="0 0 1024 1024" version="1.1" xmlns="http://www.w3.org/2000/svg" p-id="4050" width="200" height="200"><path d="M393.7 49.44c-25.856-41.112-80.13-53.478-121.242-27.636-41.126 25.858-53.492 80.146-27.636 121.258 14.522 23.124 38.052 37.16 63.174 40.408l10.696 17.02 94.762-59.584-10.71-17.018c7.944-24.048 5.492-51.308-9.044-74.448z" fill="#FFCE54" p-id="4051"></path><path d="M402.742 123.886c7.948-24.046 5.496-51.308-9.042-74.448-18.19-28.932-50.464-43.25-82.316-40.408 26.262 2.466 51.198 16.332 66.328 40.408 14.536 23.14 16.988 50.402 9.04 74.448l15.662 24.358 11.04-7.338-10.712-17.02z" opacity=".2" p-id="4052"></path><path d="M300.642 177.098a87.35 87.35 0 0 1-39.832-34.038c-25.856-41.112-13.49-95.4 27.636-121.258 12.178-7.65 25.512-11.57 38.924-12.772-18.612-1.75-37.864 2.06-54.914 12.772-41.126 25.858-53.492 80.146-27.636 121.258 14.522 23.124 38.052 37.16 63.174 40.408 0.002 0 0.11-3.184-7.352-6.37zM369.358 130.866l-28.824-0.766-11.802 26.294 17.018 27.074 40.612-25.544z" fill="#FFFFFF" opacity=".6" p-id="4053"></path><path d="M425.426 190.026l-5.01 22.048-40.612 25.544-22.048-5.028-25.528-40.612 67.672-42.548z" fill="#AAB2BD" p-id="4054"></path><path d="M399.9 149.43l-11.462 7.198 21 33.398-7.822 34.258 18.8-12.21 5.01-22.048z" opacity=".2" p-id="4055"></path><path d="M373.746 232.59l-29.292-47.904-12.226 7.292 25.528 40.612 22.048 5.028 4.262-2.686zM294.692 102.246c4.716 7.478 2.452 17.362-5.012 22.046a15.96 15.96 0 0 1-22.046-5.028c-4.7-7.464-2.452-17.332 5.012-22.032 7.494-4.698 17.348-2.45 22.046 5.014zM362.364 59.712c4.716 7.464 2.466 17.332-5.012 22.046a16.004 16.004 0 0 1-22.046-5.042c-4.7-7.478-2.452-17.348 5.012-22.046 7.494-4.7 17.36-2.436 22.046 5.042z" fill="#FFFFFF" opacity=".6" p-id="4056"></path><path d="M433 223.564l-8.322-12.412-40.612 25.544 8.338 12.398s8.494 13.552 28.808 0.782c20.282-12.774 11.788-26.312 11.788-26.312z" fill="#656D78" p-id="4057"></path><path d="M408.392 249.094l-12.882-19.596-11.444 7.198 8.338 12.398s6.432 10.18 21.454 4.482c-3.67-1.844-5.466-4.482-5.466-4.482z" fill="#FFFFFF" opacity=".2" p-id="4058"></path><path d="M687.684 389.448c-39.75 30.462-96.71 22.936-127.188-16.832-30.48-39.768-22.954-96.712 16.832-127.192 39.75-30.478 186.43-62.706 205.758-43.376 19.296 19.316-55.618 156.906-95.402 187.4z" fill="#A0D468" p-id="4059"></path><path d="M783.086 202.048c-5.714-5.714-22.734-6.838-44.656-4.918 5.872 0.906 10.274 2.514 12.68 4.918 19.296 19.314-55.618 156.904-95.402 187.398-11.96 9.166-25.512 14.474-39.41 16.924 24.296 4.418 50.246-0.734 71.386-16.924 39.784-30.492 114.698-168.082 95.402-187.398z" opacity=".2" p-id="4060"></path><path d="M592.472 372.616c-30.48-39.768-22.954-96.712 16.832-127.192 27.98-21.468 108.86-43.718 161.102-48.292-41.5-6.418-158.292 21.594-193.078 48.292-39.786 30.478-47.312 87.422-16.832 127.192 21.296 27.792 55.524 39.44 87.782 33.756-21.392-3.904-41.536-15.146-55.806-33.756z" fill="#FFFFFF" opacity=".4" p-id="4061"></path><path d="M357.272 361.42c33.554-3.108 63.252 21.546 66.376 55.07 3.108 33.522-21.546 63.252-55.086 66.358-33.54 3.108-128.502-31.008-132.578-48.918s87.766-69.356 121.288-72.51z" fill="#A0D468" p-id="4062"></path><path d="M357.272 361.42c-29.948 2.81-106.236 44.11-119.304 65.672 27.652-21.5 79.788-47.482 103.316-49.684 33.554-3.108 63.252 21.546 66.376 55.07 1.358 14.694-2.842 28.51-10.57 39.832 17.72-12.1 28.682-32.96 26.558-55.82-3.124-33.524-32.82-58.178-66.376-55.07z" opacity=".2" p-id="4063"></path><path d="M384.55 466.86c-33.538 3.106-128.502-31.008-132.576-48.918-0.438-1.92 0.42-4.262 1.982-6.838-11.758 9.134-19.19 17.488-17.972 22.828 4.076 17.91 99.038 52.026 132.578 48.918 18.83-1.75 34.632-12.038 44.516-26.528-8.26 5.636-17.864 9.54-28.528 10.538z" fill="#FFFFFF" opacity=".4" p-id="4064"></path><path d="M631.664 839.828l-31.976 0.954c0-64.906-221.928-47.326-221.928-47.326s-13.756-1.748-35.818-3.358l-26.106-2.186L503.748 600l228.75 228.742-19.766 1.656c-47.032 4.95-81.068 9.43-81.068 9.43z" fill="#965353" p-id="4065"></path><path d="M373.916 790.098l-26.106-2.186 171.922-171.924-15.984-15.988-187.914 187.912 26.106 2.186c22.062 1.61 35.818 3.358 35.818 3.358s8.01-0.626 20.938-1.216a915.06 915.06 0 0 0-24.78-2.142z" fill="#FFFFFF" opacity=".2" p-id="4066"></path><path d="M599.688 840.782l31.976-0.954s34.036-4.48 81.066-9.43c107.266-11.508 281.86-25.748 270.68 3.356-22.542 59.472-408.676 181.95-495.652 181.95-143.898 0-447.68-15.988-447.68-127.91 0-109.204 214.878-104.236 301.864-97.696 22.062 1.61 35.818 3.358 35.818 3.358s221.928-17.58 221.928 47.326z" fill="#EAC6BB" p-id="4067"></path><path d="M596.126 827.774c-28.074-49.356-218.366-34.318-218.366-34.318s-13.756-1.748-35.818-3.358c-86.984-6.542-301.864-11.508-301.864 97.696 0 2.312 0.328 4.514 0.578 6.73 11.898-99.632 216.846-94.792 301.286-88.438 22.062 1.61 35.818 3.358 35.818 3.358s190.292-15.036 218.366 34.32v-15.99z" fill="#FFFFFF" opacity=".4" p-id="4068"></path><path d="M260.202 894.164s76.414 18.66 194.08 7.292c141.406-13.664 177.382-61.628 177.382-61.628l-31.976 0.954s-169.888 71.496-335.77 47.012l-3.716 6.37z" opacity=".2" p-id="4069"></path><path d="M366.72 792.238c7.026 0.716 11.04 1.216 11.04 1.216s19.47-1.53 46.78-2.014c-22.658-0.436-43.332 0.158-57.82 0.798zM503.748 631.976l196.772 196.766-19.766 1.656c-47.032 4.95-81.066 9.43-81.066 9.43h-0.094c0 0.328 0.094 0.626 0.094 0.954l31.976-0.954s34.036-4.48 81.066-9.43l19.766-1.656-212.762-212.754-15.986 15.988z" opacity=".2" p-id="4070"></path><path d="M376.322 783.868c-4.418 0-8.072-3.574-8.072-7.992 0-4.42 3.498-7.996 7.9-7.996h0.172a8 8 0 0 1 7.994 7.996 8 8 0 0 1-7.994 7.992zM440.276 719.914c-4.418 0-8.072-3.576-8.072-7.994 0-4.42 3.498-7.994 7.9-7.994h0.172a8 8 0 0 1 7.994 7.994 8 8 0 0 1-7.994 7.994zM472.252 687.938c-4.418 0-8.072-3.576-8.072-7.996 0-4.418 3.498-7.992 7.9-7.992h0.172a7.998 7.998 0 0 1 7.994 7.992 8 8 0 0 1-7.994 7.996zM504.23 719.914c-4.418 0-8.072-3.576-8.072-7.994 0-4.42 3.498-7.994 7.9-7.994h0.172a7.998 7.998 0 0 1 7.994 7.994 8 8 0 0 1-7.994 7.994zM504.23 655.958c-4.418 0-8.072-3.574-8.072-7.994 0-4.418 3.498-7.994 7.9-7.994h0.172a8 8 0 0 1 7.994 7.994 7.998 7.998 0 0 1-7.994 7.994zM536.2 687.938c-4.402 0-8.054-3.576-8.054-7.996 0-4.418 3.496-7.992 7.898-7.992h0.156a8 8 0 0 1 7.996 7.992 8.002 8.002 0 0 1-7.996 7.996zM568.176 719.914c-4.402 0-8.054-3.576-8.054-7.994 0-4.42 3.496-7.994 7.898-7.994h0.156a8 8 0 0 1 7.996 7.994 8.002 8.002 0 0 1-7.996 7.994zM408.298 751.89c-4.418 0-8.072-3.574-8.072-7.994 0-4.418 3.498-7.994 7.902-7.994h0.17a8 8 0 0 1 7.996 7.994 8 8 0 0 1-7.996 7.994zM440.276 783.868c-4.418 0-8.072-3.574-8.072-7.992 0-4.42 3.498-7.996 7.9-7.996h0.172a8 8 0 0 1 7.994 7.996 8 8 0 0 1-7.994 7.992zM472.252 751.89c-4.418 0-8.072-3.574-8.072-7.994 0-4.418 3.498-7.994 7.9-7.994h0.172a8 8 0 0 1 7.994 7.994 7.996 7.996 0 0 1-7.994 7.994zM504.23 783.868c-4.418 0-8.072-3.574-8.072-7.992 0-4.42 3.498-7.996 7.9-7.996h0.172a8 8 0 0 1 7.994 7.996 8 8 0 0 1-7.994 7.992zM536.2 751.89c-4.402 0-8.054-3.574-8.054-7.994 0-4.418 3.496-7.994 7.898-7.994h0.156a8.002 8.002 0 0 1 7.996 7.994 8 8 0 0 1-7.996 7.994zM568.176 783.868c-4.402 0-8.054-3.574-8.054-7.992 0-4.42 3.496-7.996 7.898-7.996h0.156a8.002 8.002 0 0 1 7.996 7.996 8 8 0 0 1-7.996 7.992zM600.152 751.89c-4.402 0-8.054-3.574-8.054-7.994 0-4.418 3.496-7.994 7.898-7.994h0.156a8 8 0 0 1 7.996 7.994 8 8 0 0 1-7.996 7.994zM632.132 783.868c-4.406 0-8.058-3.574-8.058-7.992 0-4.42 3.496-7.996 7.902-7.996h0.156a7.996 7.996 0 0 1 0 15.988zM600.152 815.846c-4.402 0-8.054-3.576-8.054-7.994s3.496-7.994 7.898-7.994h0.156a8 8 0 0 1 7.996 7.994 8 8 0 0 1-7.996 7.994zM664.11 815.846c-4.402 0-8.058-3.576-8.058-7.994s3.5-7.994 7.902-7.994h0.156a8 8 0 0 1 7.992 7.994 8 8 0 0 1-7.992 7.994z" fill="#3A3847" p-id="4071"></path><path d="M487.758 1023.698c-137.01 0-455.674-13.24-455.674-135.904a7.988 7.988 0 0 1 7.994-7.992 7.988 7.988 0 0 1 7.994 7.992c0 88.422 227.134 119.916 439.686 119.916 88.352 0 467.394-122.146 488.192-176.718-12.96-15.036-188.336-3.436-343.258 16.77-4.34 0.546-8.398-2.53-8.96-6.9a7.976 7.976 0 0 1 6.902-8.948c77.758-10.164 333.356-40.784 358.18-9.37 3.25 4.108 3.968 9.134 2.062 14.146-24.856 65.236-415.642 187.008-503.118 187.008z" fill="#3A3847" p-id="4072"></path><path d="M375.838 895.79h-111.92a7.99 7.99 0 0 1-7.994-7.996 7.988 7.988 0 0 1 7.994-7.992h111.92c56.21 0 199.208-27.246 215.76-40.786-0.468-4.902-2.84-9.274-7.214-13.318-33.196-30.666-159.876-27.916-205.922-24.264a9.47 9.47 0 0 1-1.624-0.046c-2.31-0.282-231.458-28.262-306.25 37.708-15.146 13.368-22.516 29.292-22.516 48.7a7.99 7.99 0 0 1-7.994 7.996 7.99 7.99 0 0 1-7.994-7.996c0-23.936 9.4-44.358 27.934-60.706 78.616-69.31 300.238-43.828 318.008-41.658 14.396-1.11 173.256-12.102 217.194 28.528 8.278 7.62 12.46 16.676 12.46 26.872 0 30.1-196.992 54.958-231.842 54.958z" fill="#3A3847" p-id="4073"></path><path d="M711.606 815.846a7.946 7.946 0 0 1-5.652-2.342l-207.86-207.852c-3.124-3.124-3.124-8.182 0-11.304s8.182-3.124 11.304 0L717.258 802.2a7.992 7.992 0 0 1-5.652 13.646z" fill="#3A3847" p-id="4074"></path><path d="M343.86 767.878a7.968 7.968 0 0 1-5.652-2.342 7.986 7.986 0 0 1 0-11.302l159.886-159.886a7.992 7.992 0 1 1 11.304 11.304l-159.886 159.884a7.954 7.954 0 0 1-5.652 2.342z" fill="#3A3847" p-id="4075"></path><path d="M503.732 576.016a7.97 7.97 0 0 1-7.948-7.37c-0.17-2.138-14.348-214.378 164.544-295.696a8.014 8.014 0 0 1 10.586 3.966 8.02 8.02 0 0 1-3.964 10.586c-168.604 76.632-155.38 277.894-155.224 279.91a8.014 8.014 0 0 1-7.37 8.586c-0.204 0.018-0.422 0.018-0.624 0.018z" fill="#3A3847" p-id="4076"></path><path d="M632.57 416.13c-31.012 0-59.586-14.084-78.414-38.66-16.05-20.938-22.984-46.858-19.52-72.994 3.438-26.138 16.894-49.372 37.816-65.406 33.54-25.716 133.562-50.872 183.714-50.872 16.614 0 26.98 2.592 32.57 8.182 4.184 4.186 5.934 10.494 5.34 19.252-2.782 42.298-64.484 151.736-101.55 180.154-17.362 13.318-38.096 20.344-59.956 20.344z m123.598-211.942c-46.812 0-143.21 23.968-173.968 47.576-17.55 13.444-28.824 32.898-31.726 54.804-2.906 21.906 2.902 43.626 16.364 61.176 15.77 20.594 39.75 32.398 65.734 32.398 18.296 0 35.692-5.886 50.242-17.05 32.446-24.874 90.218-125.816 95.09-166.162 0.876-7.292-0.5-9.244-0.5-9.26-0.126-0.126-3.686-3.482-21.236-3.482z" fill="#3A3847" p-id="4077"></path><path d="M363.894 491.03c-33.852 0-130.112-30.744-135.7-55.334-1.046-4.59 0.39-9.634 4.262-14.99 16.958-23.404 92.324-64.266 124.068-67.248 38.752-3.654 71.558 24.482 75.086 62.284 1.702 18.346-3.84 36.256-15.614 50.434-11.774 14.176-28.356 22.92-46.702 24.624-1.668 0.154-3.48 0.23-5.4 0.23z m-0.922-121.898c-1.638 0-3.294 0.078-4.964 0.234-31.712 2.982-111.638 49.824-114.168 63.548 4.558 10.352 82.3 42.126 120.054 42.126 1.404 0 2.716-0.046 3.934-0.172 14.084-1.296 26.824-8.01 35.864-18.908 9.042-10.898 13.304-24.654 11.992-38.738-2.544-27.416-25.216-48.09-52.712-48.09z" fill="#3A3847" p-id="4078"></path><path d="M503.356 432.12a8 8 0 0 1-7.932-7.12c-0.078-0.782-9.088-78.35-61.692-139.556a7.99 7.99 0 0 1 0.844-11.274 8.004 8.004 0 0 1 11.274 0.858c55.944 65.08 65.11 144.88 65.468 148.238a7.996 7.996 0 0 1-7.962 8.854z" fill="#3A3847" p-id="4079"></path><path d="M319.332 208.466a8.024 8.024 0 0 1-6.778-3.734l-8.728-13.912a95.618 95.618 0 0 1-65.142-43.516c-13.63-21.688-18.018-47.404-12.32-72.384 5.7-24.982 20.782-46.264 42.47-59.896A95.724 95.724 0 0 1 319.814 0.3c33.226 0 63.626 16.77 81.286 44.874 14.616 23.25 18.55 51.292 11.008 77.538l8.744 13.928c1.14 1.78 1.5 3.952 1.032 6.028a8.024 8.024 0 0 1-3.53 4.996l-94.76 59.582a8.116 8.116 0 0 1-4.262 1.22z m0.484-192.174c-15.004 0-29.682 4.248-42.47 12.272-18.082 11.368-30.65 29.088-35.396 49.918-4.732 20.814-1.092 42.236 10.274 60.316 12.74 20.268 33.662 33.664 57.444 36.724a8.04 8.04 0 0 1 5.746 3.684l6.432 10.244 81.224-51.074-6.448-10.244a7.936 7.936 0 0 1-0.828-6.76c7.51-22.75 4.512-47.42-8.228-67.686-14.726-23.42-40.052-37.394-67.75-37.394z" fill="#3A3847" p-id="4080"></path><path d="M346.39 191.448c-0.592 0-1.186-0.062-1.78-0.204a7.936 7.936 0 0 1-4.98-3.528l-17.02-27.076a7.964 7.964 0 0 1-0.532-7.526l11.804-26.292a7.992 7.992 0 0 1 7.292-4.732h0.218l28.824 0.764a8.048 8.048 0 0 1 6.558 3.748l17.004 27.058a8.01 8.01 0 0 1-2.514 11.024l-40.612 25.544a8.112 8.112 0 0 1-4.262 1.22z m-7.978-35.694l10.492 16.676 27.076-17.036-10.478-16.66-19.22-0.514-7.87 17.534zM312.368 137.298a7.944 7.944 0 0 1-6.762-3.732l-17.036-27.074a7.99 7.99 0 0 1 2.5-11.024c3.732-2.31 8.68-1.234 11.024 2.514l17.034 27.074a7.992 7.992 0 0 1-2.498 11.024 8.006 8.006 0 0 1-4.262 1.218zM352.964 111.786a8.028 8.028 0 0 1-6.778-3.732l-17.018-27.09a7.996 7.996 0 0 1 2.53-11.024 8.034 8.034 0 0 1 11.024 2.514l17.018 27.09a8 8 0 0 1-2.53 11.024 7.926 7.926 0 0 1-4.246 1.218z" fill="#3A3847" p-id="4081"></path><path d="M380.444 245.596c-0.594 0-1.188-0.062-1.78-0.202l-22.046-5.028a7.95 7.95 0 0 1-4.982-3.528l-25.528-40.612a7.984 7.984 0 0 1 2.498-11.022l67.67-42.548c3.732-2.31 8.682-1.234 11.024 2.514l25.53 40.596c1.138 1.796 1.498 3.952 1.03 6.028l-5.012 22.046a8.016 8.016 0 0 1-3.53 4.996l-40.612 25.544a8.144 8.144 0 0 1-4.262 1.216z m-17.034-20.078l15.582 3.558 35.006-22.014 3.544-15.598-19.518-31.024-54.132 34.038 19.518 31.04z" fill="#3A3847" p-id="4082"></path><path d="M336.35 235.542a7.95 7.95 0 0 1-6.762-3.732 7.988 7.988 0 0 1 2.5-11.024l94.746-59.566c3.732-2.31 8.682-1.25 11.024 2.514a7.994 7.994 0 0 1-2.498 11.024l-94.746 59.568a8.042 8.042 0 0 1-4.264 1.216zM281.812 134.738a23.852 23.852 0 0 1-20.314-11.242c-7.026-11.164-3.654-25.998 7.526-33.04 10.946-6.838 26.248-3.31 33.07 7.51a23.842 23.842 0 0 1 3.09 18.114 23.756 23.756 0 0 1-10.618 14.972 23.91 23.91 0 0 1-12.754 3.686z m-0.016-31.978a7.986 7.986 0 0 0-6.762 12.226c2.28 3.638 7.37 4.808 11.024 2.53a7.97 7.97 0 0 0 2.512-11.022 7.966 7.966 0 0 0-6.774-3.734zM349.512 92.19c-8.322 0-15.926-4.2-20.344-11.226-7.026-11.196-3.654-26.028 7.526-33.07 10.946-6.854 26.278-3.278 33.086 7.558a23.8 23.8 0 0 1 3.09 18.08 23.86 23.86 0 0 1-10.618 14.974 23.846 23.846 0 0 1-12.74 3.684z m-0.062-31.992c-1.498 0-2.966 0.438-4.246 1.234a8 8 0 0 0-2.484 11.024c2.25 3.59 7.338 4.826 11.024 2.514a7.91 7.91 0 0 0 3.528-4.982 7.896 7.896 0 0 0-1.03-6.01 7.95 7.95 0 0 0-6.792-3.78zM317.38 115.252a7.986 7.986 0 0 1-6.762-3.732 7.98 7.98 0 0 1 2.514-11.024l13.538-8.508c3.7-2.328 8.666-1.234 11.008 2.514a7.982 7.982 0 0 1-2.514 11.024l-13.538 8.51a7.924 7.924 0 0 1-4.246 1.216z" fill="#3A3847" p-id="4083"></path><path d="M405.02 264.084a25.7 25.7 0 0 1-5.7-0.64c-9.134-2.092-13.458-8.634-13.928-9.384a8 8 0 0 1 2.53-11.024 7.972 7.972 0 0 1 10.914 2.374c0.844 1.156 5.542 6.2 17.878-1.576 13.382-8.416 9.322-15.224 9.274-15.302a7.98 7.98 0 0 1 2.53-11.008 7.996 7.996 0 0 1 11.024 2.514c4.404 7.026 7.074 23.858-14.302 37.332-7.12 4.464-13.88 6.714-20.22 6.714z" fill="#3A3847" p-id="4084"></path><path d="M487.758 480.084a7.99 7.99 0 0 1-6.62-3.512c-56.194-83.066-146.52-48.996-150.346-47.498-4.106 1.626-8.744-0.42-10.352-4.528-1.61-4.106 0.39-8.744 4.496-10.352 1.062-0.406 105.97-40.41 169.442 53.414a7.988 7.988 0 0 1-2.138 11.102 7.908 7.908 0 0 1-4.482 1.374z" fill="#3A3847" p-id="4085"></path></svg>
