<?xml version="1.0" encoding="UTF-8" standalone="no"?>
<!DOCTYPE svg PUBLIC "-//W3C//DTD SVG 1.1//EN" "http://www.w3.org/Graphics/SVG/1.1/DTD/svg11.dtd">
<svg t="1690971020367" class="icon" viewBox="0 0 1024 1024" version="1.1" xmlns="http://www.w3.org/2000/svg" p-id="6709" width="200" height="200"><path d="M510.2 400.4m-221.8 0a221.8 221.8 0 1 0 443.6 0 221.8 221.8 0 1 0-443.6 0Z" fill="#E75557" p-id="6710"></path><path d="M519.8 259.7l39.2 79.4c1.6 3.2 4.6 5.3 8.1 5.9l87.6 12.7c8.8 1.3 12.3 12.1 5.9 18.2l-63.4 61.8c-2.5 2.5-3.7 6-3.1 9.5l15 87.3c1.5 8.7-7.7 15.4-15.5 11.3l-78.4-41.2c-3.1-1.6-6.8-1.6-10 0l-78.4 41.2c-7.8 4.1-17-2.5-15.5-11.3l15-87.3c0.6-3.5-0.6-7-3.1-9.5L359.8 376c-6.3-6.2-2.8-17 5.9-18.2l87.6-12.7c3.5-0.5 6.5-2.7 8.1-5.9l39.2-79.4c3.9-8 15.2-8 19.2-0.1z" fill="#FFFFFF" p-id="6711"></path><path d="M510.2 637.3c-58.7 0-112.1-22.8-151.7-60-1.2-1.1-2.7-1.7-4.3-1.7-3.4 0-6.2 2.8-6.2 6.2v95c0 19.2 19.1 32.5 37.1 25.9l32.3-11.9c59.9-22.2 125.8-22.2 185.7 0l32.3 11.9c18 6.7 37.1-6.7 37.1-25.9v-95c0-3.4-2.8-6.2-6.2-6.2-1.6 0-3.1 0.6-4.3 1.7-39.8 37.2-93.1 60-151.8 60z" fill="#E75557" p-id="6712"></path></svg>
